<svg id="Capa_1" enable-background="new 0 0 512 512" height="512" viewBox="0 0 512 512" width="512" xmlns="http://www.w3.org/2000/svg"><g><g><path d="m420.487 203.265-163.758-27.083-138.533 27.205-60.706 212.529h397.02z" fill="#fff3d7"/></g><g><path d="m84.193 415.916 34.003-212.529-12.108-7.797-14.575 7.675-34.023 212.651h397.02z" fill="#f9dbaa"/></g><g><path d="m420.487 203.265-5.246-32.787c-3.844-24.028-24.573-41.704-48.906-41.704h-28.371l-78.832 29.111-83.637-29.111h-7.967c-24.333 0-48.695 25.605-52.539 49.632l-2.472 14.093 4.141 7.417c.654 0 .906 3.386 1.54 3.46 8.207.957 14.576 7.934 14.576 16.397v62.207c0 8.753 7.096 15.849 15.849 15.849 8.753 0 15.849-7.096 15.849-15.849v-30.638c0-12.031 9.356-22.279 21.38-22.706 12.623-.449 22.998 9.651 22.998 22.174v6.982c0 11.233 9.106 20.34 20.34 20.34 11.233 0 20.34-9.106 20.34-20.34v-38.02c0-9.118 7.392-16.509 16.509-16.509h57.057c9.118 0 16.509 7.392 16.509 16.509v75.812c0 9.847 7.983 17.83 17.83 17.83 9.847 0 17.83-7.983 17.83-17.83v-75.812c0-9.118 7.392-16.509 16.509-16.509h28.713z" fill="#ff415b"/></g><g><path d="m172.367 128.775h-26.702c-24.333 0-45.062 17.676-48.906 41.704l-5.246 32.787h24.751c.655 0 1.297.048 1.932.122l5.265-32.909c3.845-24.028 24.573-41.704 48.906-41.704z" fill="#ef2b55"/></g><g><g><path d="m408.302 512h-278.355c-6.827 0-22.252-5.535-22.252-12.362l22.623-21.696 290.346 12.733v8.962c0 6.828-5.535 12.363-12.362 12.363z" fill="#d4d4e8"/></g></g><g><path d="m420.664 490.675v-33.193h-329.328v42.155c0 6.827 5.535 12.362 12.362 12.362h30.411c-6.827 0-12.362-5.535-12.362-12.362v-8.963h298.917z" fill="#c6c6e0"/></g><g><path d="m503.3 424.828-7.847 19.209c-7.122 17.434-24.083 28.826-42.915 28.826h-367.837c-18.832 0-39.053-11.393-46.175-28.826l-7.847-19.209c-4.153-10.165 7.046-21.297 18.027-21.297h440.289c10.98.001 18.458 11.132 14.305 21.297z" fill="#e9e9ff"/></g><g><path d="m46.959 444.038-7.847-19.209c-4.153-10.165 3.324-21.297 14.305-21.297h-30.412c-10.981 0-18.458 11.132-14.305 21.297l7.848 19.209c7.122 17.434 24.083 28.826 42.915 28.826h30.411c-18.832 0-35.793-11.393-42.915-28.826z" fill="#d4d4e8"/></g><g><path d="m212.546 70.547-.65-.684c-11.807-12.424-31.46-12.891-43.845-1.043l-11.163 10.68c-4.985 4.769-3.316 13.102 3.121 15.584l14.416 5.557c15.992 6.165 33.949-1.836 40.061-17.848l.336-.882c1.493-3.91.608-8.33-2.276-11.364z" fill="#3cb372"/></g><g><path d="m219.011 60.843-.882-.336c-16.012-6.112-24.013-24.069-17.848-40.061l5.557-14.416c2.481-6.437 10.815-8.106 15.584-3.121l10.68 11.164c11.848 12.384 11.38 32.038-1.043 43.845l-.684.65c-3.033 2.883-7.453 3.768-11.364 2.275z" fill="#3cb372"/></g><g><path d="m218.811 74.679-.861.385c-15.644 7.001-33.999-.04-40.948-15.707l-6.264-14.123c-2.797-6.306 1.916-13.379 8.812-13.226l15.446.342c17.135.379 30.701 14.607 30.265 31.74l-.024.943c-.106 4.185-2.605 7.936-6.426 9.646z" fill="#41c47d"/></g><path d="m175.495 128.775c13.881 23.63 39.501 38.536 67.239 38.536 1.583 0 3.188-.049 4.77-.145l46.688-2.852c15.26-.932 28.874-8.764 37.352-21.487 2.929-4.396 5.064-9.138 6.422-14.051h-28.011l-46.681 8.85-54.75-8.85z" fill="#ef2b55"/><path d="m249.537 29.278.364.013c21.519.793 40.345 14.712 47.411 35.053l15.349 44.185c2.899 8.344.642 16.96-4.759 22.828-3.782 4.109-10.886 1.426-17.06 1.803l-45.925 4.327c-21.493 1.313-33.383-6.778-42.402-26.331l-.371-1.978c-5.106-11.069-2.061-15.594 4.698-25.739l17.307-32.827c6.456-9.69 12.184-21.246 23.758-21.357.54-.004 1.084.003 1.63.023z" fill="#ff6969"/><g><path d="m267.443 133.826c-21.493 1.313-41.589-10.7-50.608-30.254l-.152-.33c-5.106-11.069-4.098-23.995 2.661-34.14l21.222-31.852c2.045-3.07 4.534-5.743 7.34-7.979-11.573.112-22.394 5.921-28.85 15.611l-21.222 31.852c-6.759 10.144-7.766 23.071-2.661 34.14l.152.33c9.019 19.554 29.115 31.567 50.608 30.254l46.688-2.852c6.174-.377 11.494-3.142 15.276-7.251z" fill="#ff415b"/></g><g><path d="m239.935 103.619-.282.423c-2.578 3.87-7.806 4.917-11.676 2.338l-.423-.282c-3.87-2.578-4.917-7.806-2.338-11.676l.282-.422c2.578-3.87 7.806-4.917 11.676-2.338l.423.282c3.87 2.577 4.917 7.805 2.338 11.675z" fill="#ef2b55"/></g><g><path d="m261.047 71.932-.282.423c-2.578 3.87-7.806 4.917-11.676 2.338l-.423-.282c-3.87-2.578-4.917-7.806-2.338-11.676l.282-.423c2.578-3.87 7.806-4.917 11.676-2.338l.423.282c3.869 2.579 4.916 7.806 2.338 11.676z" fill="#ef2b55"/></g><g><path d="m275.833 104.66-.282.423c-2.578 3.87-7.806 4.917-11.676 2.338l-.423-.282c-3.87-2.578-4.917-7.806-2.338-11.676l.282-.423c2.578-3.87 7.806-4.917 11.676-2.338l.423.282c3.87 2.579 4.917 7.806 2.338 11.676z" fill="#ef2b55"/></g></g></svg>